<svg xmlns="http://www.w3.org/2000/svg" version="1.1" xmlns:xlink="http://www.w3.org/1999/xlink" xmlns:svgjs="http://svgjs.com/svgjs" width="1440" height="560" preserveAspectRatio="none" viewBox="0 0 1440 560"><g mask="url(&quot;#SvgjsMask1033&quot;)" fill="none"><rect width="1440" height="560" x="0" y="0" fill="rgba(0, 0, 0, 1)"></rect><path d="M1162 44L472 43" stroke-width="10" stroke="url(#SvgjsLinearGradient1034)" stroke-linecap="round" class="Left"></path><path d="M1347 289L634 288" stroke-width="6" stroke="url(#SvgjsLinearGradient1035)" stroke-linecap="round" class="Right"></path><path d="M362 303L870 302" stroke-width="8" stroke="url(#SvgjsLinearGradient1034)" stroke-linecap="round" class="Left"></path><path d="M778 370L1638 369" stroke-width="6" stroke="url(#SvgjsLinearGradient1035)" stroke-linecap="round" class="Right"></path><path d="M525 311L40 310" stroke-width="6" stroke="url(#SvgjsLinearGradient1034)" stroke-linecap="round" class="Left"></path><path d="M364 407L-705 406" stroke-width="6" stroke="url(#SvgjsLinearGradient1035)" stroke-linecap="round" class="Right"></path><path d="M1437 83L1917 82" stroke-width="8" stroke="url(#SvgjsLinearGradient1035)" stroke-linecap="round" class="Right"></path><path d="M1351 97L508 96" stroke-width="10" stroke="url(#SvgjsLinearGradient1035)" stroke-linecap="round" class="Right"></path><path d="M226 198L-315 197" stroke-width="8" stroke="url(#SvgjsLinearGradient1035)" stroke-linecap="round" class="Right"></path><path d="M1355 131L836 130" stroke-width="10" stroke="url(#SvgjsLinearGradient1034)" stroke-linecap="round" class="Left"></path><path d="M930 257L192 256" stroke-width="8" stroke="url(#SvgjsLinearGradient1035)" stroke-linecap="round" class="Right"></path><path d="M1033 532L314 531" stroke-width="8" stroke="url(#SvgjsLinearGradient1034)" stroke-linecap="round" class="Left"></path><path d="M932 48L132 47" stroke-width="8" stroke="url(#SvgjsLinearGradient1034)" stroke-linecap="round" class="Left"></path><path d="M659 353L118 352" stroke-width="6" stroke="url(#SvgjsLinearGradient1035)" stroke-linecap="round" class="Right"></path></g><defs><mask id="SvgjsMask1033"><rect width="1440" height="560" fill="#ffffff"></rect></mask><linearGradient x1="100%" y1="0%" x2="0%" y2="0%" id="SvgjsLinearGradient1034"><stop stop-color="rgba(66, 70, 73, 0)" offset="0"></stop><stop stop-color="rgba(66, 70, 73, 1)" offset="1"></stop></linearGradient><linearGradient x1="0%" y1="0%" x2="100%" y2="0%" id="SvgjsLinearGradient1035"><stop stop-color="rgba(66, 70, 73, 0)" offset="0"></stop><stop stop-color="rgba(66, 70, 73, 1)" offset="1"></stop></linearGradient></defs></svg>