<svg xmlns="http://www.w3.org/2000/svg" version="1.1" xmlns:xlink="http://www.w3.org/1999/xlink" xmlns:svgjs="http://svgjs.com/svgjs" width="1440" height="560" preserveAspectRatio="none" viewBox="0 0 1440 560"><g mask="url(&quot;#SvgjsMask1018&quot;)" fill="none"><rect width="1440" height="560" x="0" y="0" fill="rgba(0, 0, 0, 1)"></rect><path d="M261 367L260 508" stroke-width="8" stroke="url(#SvgjsLinearGradient1019)" stroke-linecap="round" class="Down"></path><path d="M1273 125L1272 -237" stroke-width="10" stroke="url(#SvgjsLinearGradient1019)" stroke-linecap="round" class="Down"></path><path d="M13 424L12 107" stroke-width="6" stroke="url(#SvgjsLinearGradient1020)" stroke-linecap="round" class="Up"></path><path d="M129 263L128 44" stroke-width="8" stroke="url(#SvgjsLinearGradient1020)" stroke-linecap="round" class="Up"></path><path d="M958 500L957 118" stroke-width="6" stroke="url(#SvgjsLinearGradient1019)" stroke-linecap="round" class="Down"></path><path d="M1327 104L1326 -256" stroke-width="6" stroke="url(#SvgjsLinearGradient1019)" stroke-linecap="round" class="Down"></path><path d="M154 527L153 184" stroke-width="10" stroke="url(#SvgjsLinearGradient1020)" stroke-linecap="round" class="Up"></path><path d="M705 360L704 -33" stroke-width="8" stroke="url(#SvgjsLinearGradient1019)" stroke-linecap="round" class="Down"></path><path d="M1428 194L1427 -53" stroke-width="10" stroke="url(#SvgjsLinearGradient1020)" stroke-linecap="round" class="Up"></path><path d="M916 533L915 819" stroke-width="10" stroke="url(#SvgjsLinearGradient1020)" stroke-linecap="round" class="Up"></path><path d="M230 388L229 80" stroke-width="6" stroke="url(#SvgjsLinearGradient1019)" stroke-linecap="round" class="Down"></path><path d="M953 45L952 -361" stroke-width="10" stroke="url(#SvgjsLinearGradient1020)" stroke-linecap="round" class="Up"></path><path d="M1175 426L1174 80" stroke-width="10" stroke="url(#SvgjsLinearGradient1019)" stroke-linecap="round" class="Down"></path><path d="M1009 463L1008 758" stroke-width="10" stroke="url(#SvgjsLinearGradient1019)" stroke-linecap="round" class="Down"></path><path d="M1036 520L1035 252" stroke-width="6" stroke="url(#SvgjsLinearGradient1020)" stroke-linecap="round" class="Up"></path><path d="M1204 226L1203 55" stroke-width="8" stroke="url(#SvgjsLinearGradient1019)" stroke-linecap="round" class="Down"></path><path d="M516 473L515 213" stroke-width="8" stroke="url(#SvgjsLinearGradient1020)" stroke-linecap="round" class="Up"></path><path d="M1276 267L1275 14" stroke-width="10" stroke="url(#SvgjsLinearGradient1019)" stroke-linecap="round" class="Down"></path><path d="M641 5L640 206" stroke-width="6" stroke="url(#SvgjsLinearGradient1020)" stroke-linecap="round" class="Up"></path><path d="M477 303L476 -84" stroke-width="8" stroke="url(#SvgjsLinearGradient1019)" stroke-linecap="round" class="Down"></path><path d="M1170 395L1169 728" stroke-width="6" stroke="url(#SvgjsLinearGradient1020)" stroke-linecap="round" class="Up"></path><path d="M1247 226L1246 -71" stroke-width="10" stroke="url(#SvgjsLinearGradient1020)" stroke-linecap="round" class="Up"></path><path d="M1143 154L1142 340" stroke-width="6" stroke="url(#SvgjsLinearGradient1019)" stroke-linecap="round" class="Down"></path><path d="M191 503L190 887" stroke-width="10" stroke="url(#SvgjsLinearGradient1019)" stroke-linecap="round" class="Down"></path><path d="M991 556L990 724" stroke-width="8" stroke="url(#SvgjsLinearGradient1019)" stroke-linecap="round" class="Down"></path><path d="M1007 288L1006 584" stroke-width="6" stroke="url(#SvgjsLinearGradient1020)" stroke-linecap="round" class="Up"></path><path d="M1250 163L1249 -212" stroke-width="6" stroke="url(#SvgjsLinearGradient1019)" stroke-linecap="round" class="Down"></path><path d="M770 245L769 38" stroke-width="10" stroke="url(#SvgjsLinearGradient1019)" stroke-linecap="round" class="Down"></path><path d="M666 504L665 289" stroke-width="10" stroke="url(#SvgjsLinearGradient1020)" stroke-linecap="round" class="Up"></path><path d="M174 403L173 179" stroke-width="8" stroke="url(#SvgjsLinearGradient1020)" stroke-linecap="round" class="Up"></path><path d="M757 183L756 -186" stroke-width="8" stroke="url(#SvgjsLinearGradient1020)" stroke-linecap="round" class="Up"></path><path d="M487 457L486 713" stroke-width="6" stroke="url(#SvgjsLinearGradient1020)" stroke-linecap="round" class="Up"></path><path d="M945 404L944 176" stroke-width="6" stroke="url(#SvgjsLinearGradient1019)" stroke-linecap="round" class="Down"></path><path d="M922 543L921 873" stroke-width="8" stroke="url(#SvgjsLinearGradient1019)" stroke-linecap="round" class="Down"></path><path d="M1419 516L1418 779" stroke-width="8" stroke="url(#SvgjsLinearGradient1020)" stroke-linecap="round" class="Up"></path><path d="M213 494L212 271" stroke-width="8" stroke="url(#SvgjsLinearGradient1019)" stroke-linecap="round" class="Down"></path></g><defs><mask id="SvgjsMask1018"><rect width="1440" height="560" fill="#ffffff"></rect></mask><linearGradient x1="0%" y1="0%" x2="0%" y2="100%" id="SvgjsLinearGradient1019"><stop stop-color="rgba(66, 70, 73, 0)" offset="0"></stop><stop stop-color="rgba(66, 70, 73, 1)" offset="1"></stop></linearGradient><linearGradient x1="0%" y1="100%" x2="0%" y2="0%" id="SvgjsLinearGradient1020"><stop stop-color="rgba(66, 70, 73, 0)" offset="0"></stop><stop stop-color="rgba(66, 70, 73, 1)" offset="1"></stop></linearGradient></defs></svg>