<svg xmlns="http://www.w3.org/2000/svg" version="1.1" xmlns:xlink="http://www.w3.org/1999/xlink" xmlns:svgjs="http://svgjs.com/svgjs" width="1440" height="560" preserveAspectRatio="none" viewBox="0 0 1440 560"><g mask="url(&quot;#SvgjsMask1038&quot;)" fill="none"><rect width="1440" height="560" x="0" y="0" fill="rgba(0, 0, 0, 1)"></rect><path d="M-92.46 396.95L-92.46 396.95" stroke="#132e65" stroke-width="1.5"></path><path d="M-92.46 396.95L-69.84 523.18" stroke="#132e65" stroke-width="1.5"></path><path d="M-92.46 396.95L59.2 354.18" stroke="#132e65" stroke-width="1.5"></path><path d="M-92.46 396.95L53.27 504.62" stroke="#132e65" stroke-width="1.5"></path><path d="M-92.46 396.95L-83.88 685.07" stroke="#132e65" stroke-width="1.5"></path><path d="M-92.46 396.95L196.93 411.63" stroke="#132e65" stroke-width="1.5"></path><path d="M-69.84 523.18L-69.84 523.18" stroke="#132e65" stroke-width="1.5"></path><path d="M-69.84 523.18L53.27 504.62" stroke="#132e65" stroke-width="1.5"></path><path d="M-83.88 685.07L-83.88 685.07" stroke="#132e65" stroke-width="1.5"></path><path d="M-83.88 685.07L-69.84 523.18" stroke="#132e65" stroke-width="1.5"></path><path d="M-83.88 685.07L91.56 645.86" stroke="#132e65" stroke-width="1.5"></path><path d="M-83.88 685.07L53.27 504.62" stroke="#132e65" stroke-width="1.5"></path><path d="M-83.88 685.07L218.68 646.9" stroke="#132e65" stroke-width="1.5"></path><path d="M59.2 354.18L59.2 354.18" stroke="#132e65" stroke-width="1.5"></path><path d="M59.2 354.18L196.93 411.63" stroke="#132e65" stroke-width="1.5"></path><path d="M59.2 354.18L53.27 504.62" stroke="#132e65" stroke-width="1.5"></path><path d="M59.2 354.18L-69.84 523.18" stroke="#132e65" stroke-width="1.5"></path><path d="M59.2 354.18L216.69 520.54" stroke="#132e65" stroke-width="1.5"></path><path d="M59.2 354.18L91.56 645.86" stroke="#132e65" stroke-width="1.5"></path><path d="M53.27 504.62L53.27 504.62" stroke="#132e65" stroke-width="1.5"></path><path d="M53.27 504.62L91.56 645.86" stroke="#132e65" stroke-width="1.5"></path><path d="M91.56 645.86L91.56 645.86" stroke="#132e65" stroke-width="1.5"></path><path d="M91.56 645.86L218.68 646.9" stroke="#132e65" stroke-width="1.5"></path><path d="M91.56 645.86L216.69 520.54" stroke="#132e65" stroke-width="1.5"></path><path d="M91.56 645.86L-69.84 523.18" stroke="#132e65" stroke-width="1.5"></path><path d="M196.93 411.63L196.93 411.63" stroke="#132e65" stroke-width="1.5"></path><path d="M196.93 411.63L216.69 520.54" stroke="#132e65" stroke-width="1.5"></path><path d="M196.93 411.63L53.27 504.62" stroke="#132e65" stroke-width="1.5"></path><path d="M196.93 411.63L365.43 360.84" stroke="#132e65" stroke-width="1.5"></path><path d="M196.93 411.63L218.68 646.9" stroke="#132e65" stroke-width="1.5"></path><path d="M196.93 411.63L407.27 524.01" stroke="#132e65" stroke-width="1.5"></path><path d="M216.69 520.54L216.69 520.54" stroke="#132e65" stroke-width="1.5"></path><path d="M216.69 520.54L218.68 646.9" stroke="#132e65" stroke-width="1.5"></path><path d="M216.69 520.54L53.27 504.62" stroke="#132e65" stroke-width="1.5"></path><path d="M216.69 520.54L343.82 654.55" stroke="#132e65" stroke-width="1.5"></path><path d="M216.69 520.54L407.27 524.01" stroke="#132e65" stroke-width="1.5"></path><path d="M218.68 646.9L218.68 646.9" stroke="#132e65" stroke-width="1.5"></path><path d="M218.68 646.9L343.82 654.55" stroke="#132e65" stroke-width="1.5"></path><path d="M218.68 646.9L53.27 504.62" stroke="#132e65" stroke-width="1.5"></path><path d="M365.43 360.84L365.43 360.84" stroke="#132e65" stroke-width="1.5"></path><path d="M365.43 360.84L524.44 352.39" stroke="#132e65" stroke-width="1.5"></path><path d="M365.43 360.84L407.27 524.01" stroke="#132e65" stroke-width="1.5"></path><path d="M365.43 360.84L216.69 520.54" stroke="#132e65" stroke-width="1.5"></path><path d="M365.43 360.84L523.03 536.69" stroke="#132e65" stroke-width="1.5"></path><path d="M407.27 524.01L407.27 524.01" stroke="#132e65" stroke-width="1.5"></path><path d="M407.27 524.01L523.03 536.69" stroke="#132e65" stroke-width="1.5"></path><path d="M407.27 524.01L343.82 654.55" stroke="#132e65" stroke-width="1.5"></path><path d="M407.27 524.01L493.37 650.51" stroke="#132e65" stroke-width="1.5"></path><path d="M343.82 654.55L343.82 654.55" stroke="#132e65" stroke-width="1.5"></path><path d="M343.82 654.55L493.37 650.51" stroke="#132e65" stroke-width="1.5"></path><path d="M524.44 352.39L524.44 352.39" stroke="#132e65" stroke-width="1.5"></path><path d="M524.44 352.39L680.02 368.11" stroke="#132e65" stroke-width="1.5"></path><path d="M524.44 352.39L523.03 536.69" stroke="#132e65" stroke-width="1.5"></path><path d="M524.44 352.39L687.09 249.27" stroke="#132e65" stroke-width="1.5"></path><path d="M524.44 352.39L407.27 524.01" stroke="#132e65" stroke-width="1.5"></path><path d="M523.03 536.69L523.03 536.69" stroke="#132e65" stroke-width="1.5"></path><path d="M523.03 536.69L493.37 650.51" stroke="#132e65" stroke-width="1.5"></path><path d="M523.03 536.69L699.91 491.63" stroke="#132e65" stroke-width="1.5"></path><path d="M523.03 536.69L650.85 689.72" stroke="#132e65" stroke-width="1.5"></path><path d="M523.03 536.69L343.82 654.55" stroke="#132e65" stroke-width="1.5"></path><path d="M493.37 650.51L493.37 650.51" stroke="#132e65" stroke-width="1.5"></path><path d="M493.37 650.51L650.85 689.72" stroke="#132e65" stroke-width="1.5"></path><path d="M493.37 650.51L699.91 491.63" stroke="#132e65" stroke-width="1.5"></path><path d="M493.37 650.51L218.68 646.9" stroke="#132e65" stroke-width="1.5"></path><path d="M687.09 249.27L687.09 249.27" stroke="#132e65" stroke-width="1.5"></path><path d="M687.09 249.27L795.31 248.74" stroke="#132e65" stroke-width="1.5"></path><path d="M687.09 249.27L680.02 368.11" stroke="#132e65" stroke-width="1.5"></path><path d="M687.09 249.27L849.14 349.06" stroke="#132e65" stroke-width="1.5"></path><path d="M680.02 368.11L680.02 368.11" stroke="#132e65" stroke-width="1.5"></path><path d="M680.02 368.11L699.91 491.63" stroke="#132e65" stroke-width="1.5"></path><path d="M699.91 491.63L699.91 491.63" stroke="#132e65" stroke-width="1.5"></path><path d="M699.91 491.63L810.61 552.92" stroke="#132e65" stroke-width="1.5"></path><path d="M699.91 491.63L650.85 689.72" stroke="#132e65" stroke-width="1.5"></path><path d="M650.85 689.72L650.85 689.72" stroke="#132e65" stroke-width="1.5"></path><path d="M795.31 248.74L795.31 248.74" stroke="#132e65" stroke-width="1.5"></path><path d="M795.31 248.74L849.14 349.06" stroke="#132e65" stroke-width="1.5"></path><path d="M795.31 248.74L680.02 368.11" stroke="#132e65" stroke-width="1.5"></path><path d="M795.31 248.74L986.31 191.32" stroke="#132e65" stroke-width="1.5"></path><path d="M795.31 248.74L973.7 344.91" stroke="#132e65" stroke-width="1.5"></path><path d="M795.31 248.74L699.91 491.63" stroke="#132e65" stroke-width="1.5"></path><path d="M849.14 349.06L849.14 349.06" stroke="#132e65" stroke-width="1.5"></path><path d="M849.14 349.06L973.7 344.91" stroke="#132e65" stroke-width="1.5"></path><path d="M849.14 349.06L680.02 368.11" stroke="#132e65" stroke-width="1.5"></path><path d="M810.61 552.92L810.61 552.92" stroke="#132e65" stroke-width="1.5"></path><path d="M810.61 552.92L941.02 539.43" stroke="#132e65" stroke-width="1.5"></path><path d="M810.61 552.92L849.14 349.06" stroke="#132e65" stroke-width="1.5"></path><path d="M810.61 552.92L972.66 683.36" stroke="#132e65" stroke-width="1.5"></path><path d="M810.61 552.92L650.85 689.72" stroke="#132e65" stroke-width="1.5"></path><path d="M810.61 552.92L680.02 368.11" stroke="#132e65" stroke-width="1.5"></path><path d="M938.02 -85.84L938.02 -85.84" stroke="#132e65" stroke-width="1.5"></path><path d="M938.02 -85.84L1002.85 71.77" stroke="#132e65" stroke-width="1.5"></path><path d="M938.02 -85.84L1128.68 -75.47" stroke="#132e65" stroke-width="1.5"></path><path d="M1002.85 71.77L1002.85 71.77" stroke="#132e65" stroke-width="1.5"></path><path d="M1002.85 71.77L1095.43 44.13" stroke="#132e65" stroke-width="1.5"></path><path d="M1002.85 71.77L986.31 191.32" stroke="#132e65" stroke-width="1.5"></path><path d="M986.31 191.32L986.31 191.32" stroke="#132e65" stroke-width="1.5"></path><path d="M986.31 191.32L1116.1 198.92" stroke="#132e65" stroke-width="1.5"></path><path d="M986.31 191.32L973.7 344.91" stroke="#132e65" stroke-width="1.5"></path><path d="M986.31 191.32L1095.43 44.13" stroke="#132e65" stroke-width="1.5"></path><path d="M973.7 344.91L973.7 344.91" stroke="#132e65" stroke-width="1.5"></path><path d="M973.7 344.91L1090.65 370.6" stroke="#132e65" stroke-width="1.5"></path><path d="M941.02 539.43L941.02 539.43" stroke="#132e65" stroke-width="1.5"></path><path d="M941.02 539.43L972.66 683.36" stroke="#132e65" stroke-width="1.5"></path><path d="M941.02 539.43L973.7 344.91" stroke="#132e65" stroke-width="1.5"></path><path d="M941.02 539.43L849.14 349.06" stroke="#132e65" stroke-width="1.5"></path><path d="M941.02 539.43L1152.41 518.71" stroke="#132e65" stroke-width="1.5"></path><path d="M972.66 683.36L972.66 683.36" stroke="#132e65" stroke-width="1.5"></path><path d="M972.66 683.36L1152.83 656.74" stroke="#132e65" stroke-width="1.5"></path><path d="M1128.68 -75.47L1128.68 -75.47" stroke="#132e65" stroke-width="1.5"></path><path d="M1128.68 -75.47L1095.43 44.13" stroke="#132e65" stroke-width="1.5"></path><path d="M1128.68 -75.47L1285.88 -46.59" stroke="#132e65" stroke-width="1.5"></path><path d="M1095.43 44.13L1095.43 44.13" stroke="#132e65" stroke-width="1.5"></path><path d="M1116.1 198.92L1116.1 198.92" stroke="#132e65" stroke-width="1.5"></path><path d="M1116.1 198.92L1095.43 44.13" stroke="#132e65" stroke-width="1.5"></path><path d="M1116.1 198.92L1002.85 71.77" stroke="#132e65" stroke-width="1.5"></path><path d="M1090.65 370.6L1090.65 370.6" stroke="#132e65" stroke-width="1.5"></path><path d="M1090.65 370.6L1152.41 518.71" stroke="#132e65" stroke-width="1.5"></path><path d="M1152.41 518.71L1152.41 518.71" stroke="#132e65" stroke-width="1.5"></path><path d="M1152.41 518.71L1152.83 656.74" stroke="#132e65" stroke-width="1.5"></path><path d="M1152.41 518.71L1305.01 552.39" stroke="#132e65" stroke-width="1.5"></path><path d="M1152.83 656.74L1152.83 656.74" stroke="#132e65" stroke-width="1.5"></path><path d="M1152.83 656.74L1307.49 684.65" stroke="#132e65" stroke-width="1.5"></path><path d="M1285.88 -46.59L1285.88 -46.59" stroke="#132e65" stroke-width="1.5"></path><path d="M1285.88 -46.59L1283.28 51.93" stroke="#132e65" stroke-width="1.5"></path><path d="M1285.88 -46.59L1390.98 -69.83" stroke="#132e65" stroke-width="1.5"></path><path d="M1285.88 -46.59L1391.09 40.67" stroke="#132e65" stroke-width="1.5"></path><path d="M1285.88 -46.59L1095.43 44.13" stroke="#132e65" stroke-width="1.5"></path><path d="M1285.88 -46.59L1561.24 -94.22" stroke="#132e65" stroke-width="1.5"></path><path d="M1283.28 51.93L1283.28 51.93" stroke="#132e65" stroke-width="1.5"></path><path d="M1283.28 51.93L1391.09 40.67" stroke="#132e65" stroke-width="1.5"></path><path d="M1283.28 51.93L1390.98 -69.83" stroke="#132e65" stroke-width="1.5"></path><path d="M1283.28 51.93L1095.43 44.13" stroke="#132e65" stroke-width="1.5"></path><path d="M1283.28 51.93L1128.68 -75.47" stroke="#132e65" stroke-width="1.5"></path><path d="M1280.36 348.38L1280.36 348.38" stroke="#132e65" stroke-width="1.5"></path><path d="M1280.36 348.38L1391.97 368.43" stroke="#132e65" stroke-width="1.5"></path><path d="M1280.36 348.38L1090.65 370.6" stroke="#132e65" stroke-width="1.5"></path><path d="M1305.01 552.39L1305.01 552.39" stroke="#132e65" stroke-width="1.5"></path><path d="M1305.01 552.39L1307.49 684.65" stroke="#132e65" stroke-width="1.5"></path><path d="M1305.01 552.39L1435.46 527.71" stroke="#132e65" stroke-width="1.5"></path><path d="M1307.49 684.65L1307.49 684.65" stroke="#132e65" stroke-width="1.5"></path><path d="M1307.49 684.65L1420.45 693.72" stroke="#132e65" stroke-width="1.5"></path><path d="M1390.98 -69.83L1390.98 -69.83" stroke="#132e65" stroke-width="1.5"></path><path d="M1390.98 -69.83L1391.09 40.67" stroke="#132e65" stroke-width="1.5"></path><path d="M1390.98 -69.83L1561.24 -94.22" stroke="#132e65" stroke-width="1.5"></path><path d="M1391.09 40.67L1391.09 40.67" stroke="#132e65" stroke-width="1.5"></path><path d="M1391.97 368.43L1391.97 368.43" stroke="#132e65" stroke-width="1.5"></path><path d="M1391.97 368.43L1435.46 527.71" stroke="#132e65" stroke-width="1.5"></path><path d="M1391.97 368.43L1564.11 393.86" stroke="#132e65" stroke-width="1.5"></path><path d="M1435.46 527.71L1435.46 527.71" stroke="#132e65" stroke-width="1.5"></path><path d="M1435.46 527.71L1576.12 560.68" stroke="#132e65" stroke-width="1.5"></path><path d="M1435.46 527.71L1420.45 693.72" stroke="#132e65" stroke-width="1.5"></path><path d="M1435.46 527.71L1564.11 393.86" stroke="#132e65" stroke-width="1.5"></path><path d="M1435.46 527.71L1307.49 684.65" stroke="#132e65" stroke-width="1.5"></path><path d="M1420.45 693.72L1420.45 693.72" stroke="#132e65" stroke-width="1.5"></path><path d="M1420.45 693.72L1578.95 683.47" stroke="#132e65" stroke-width="1.5"></path><path d="M1420.45 693.72L1305.01 552.39" stroke="#132e65" stroke-width="1.5"></path><path d="M1420.45 693.72L1576.12 560.68" stroke="#132e65" stroke-width="1.5"></path><path d="M1420.45 693.72L1152.83 656.74" stroke="#132e65" stroke-width="1.5"></path><path d="M1561.24 -94.22L1561.24 -94.22" stroke="#132e65" stroke-width="1.5"></path><path d="M1561.24 -94.22L1608.77 76.5" stroke="#132e65" stroke-width="1.5"></path><path d="M1561.24 -94.22L1391.09 40.67" stroke="#132e65" stroke-width="1.5"></path><path d="M1561.24 -94.22L1586.25 187.87" stroke="#132e65" stroke-width="1.5"></path><path d="M1561.24 -94.22L1283.28 51.93" stroke="#132e65" stroke-width="1.5"></path><path d="M1608.77 76.5L1608.77 76.5" stroke="#132e65" stroke-width="1.5"></path><path d="M1608.77 76.5L1586.25 187.87" stroke="#132e65" stroke-width="1.5"></path><path d="M1608.77 76.5L1391.09 40.67" stroke="#132e65" stroke-width="1.5"></path><path d="M1608.77 76.5L1390.98 -69.83" stroke="#132e65" stroke-width="1.5"></path><path d="M1608.77 76.5L1564.11 393.86" stroke="#132e65" stroke-width="1.5"></path><path d="M1608.77 76.5L1283.28 51.93" stroke="#132e65" stroke-width="1.5"></path><path d="M1586.25 187.87L1586.25 187.87" stroke="#132e65" stroke-width="1.5"></path><path d="M1586.25 187.87L1564.11 393.86" stroke="#132e65" stroke-width="1.5"></path><path d="M1586.25 187.87L1391.09 40.67" stroke="#132e65" stroke-width="1.5"></path><path d="M1586.25 187.87L1391.97 368.43" stroke="#132e65" stroke-width="1.5"></path><path d="M1586.25 187.87L1390.98 -69.83" stroke="#132e65" stroke-width="1.5"></path><path d="M1564.11 393.86L1564.11 393.86" stroke="#132e65" stroke-width="1.5"></path><path d="M1564.11 393.86L1576.12 560.68" stroke="#132e65" stroke-width="1.5"></path><path d="M1564.11 393.86L1280.36 348.38" stroke="#132e65" stroke-width="1.5"></path><path d="M1576.12 560.68L1576.12 560.68" stroke="#132e65" stroke-width="1.5"></path><path d="M1576.12 560.68L1578.95 683.47" stroke="#132e65" stroke-width="1.5"></path><path d="M1578.95 683.47L1578.95 683.47" stroke="#132e65" stroke-width="1.5"></path><circle r="5" cx="-92.46" cy="396.95" fill="#132e65"></circle><circle r="5" cx="-69.84" cy="523.18" fill="#132e65"></circle><circle r="5" cx="-83.88" cy="685.07" fill="#132e65"></circle><circle r="5" cx="59.2" cy="354.18" fill="#132e65"></circle><circle r="5" cx="53.27" cy="504.62" fill="#132e65"></circle><circle r="5" cx="91.56" cy="645.86" fill="#132e65"></circle><circle r="5" cx="196.93" cy="411.63" fill="#132e65"></circle><circle r="5" cx="216.69" cy="520.54" fill="#132e65"></circle><circle r="5" cx="218.68" cy="646.9" fill="#132e65"></circle><circle r="5" cx="365.43" cy="360.84" fill="#132e65"></circle><circle r="5" cx="407.27" cy="524.01" fill="#132e65"></circle><circle r="5" cx="343.82" cy="654.55" fill="#132e65"></circle><circle r="5" cx="524.44" cy="352.39" fill="#132e65"></circle><circle r="5" cx="523.03" cy="536.69" fill="#132e65"></circle><circle r="5" cx="493.37" cy="650.51" fill="#132e65"></circle><circle r="5" cx="687.09" cy="249.27" fill="#132e65"></circle><circle r="5" cx="680.02" cy="368.11" fill="#132e65"></circle><circle r="5" cx="699.91" cy="491.63" fill="#132e65"></circle><circle r="5" cx="650.85" cy="689.72" fill="#132e65"></circle><circle r="5" cx="795.31" cy="248.74" fill="#132e65"></circle><circle r="5" cx="849.14" cy="349.06" fill="#132e65"></circle><circle r="5" cx="810.61" cy="552.92" fill="#132e65"></circle><circle r="5" cx="938.02" cy="-85.84" fill="#132e65"></circle><circle r="5" cx="1002.85" cy="71.77" fill="#132e65"></circle><circle r="5" cx="986.31" cy="191.32" fill="#132e65"></circle><circle r="5" cx="973.7" cy="344.91" fill="#132e65"></circle><circle r="5" cx="941.02" cy="539.43" fill="#132e65"></circle><circle r="5" cx="972.66" cy="683.36" fill="#132e65"></circle><circle r="5" cx="1128.68" cy="-75.47" fill="#132e65"></circle><circle r="5" cx="1095.43" cy="44.13" fill="#132e65"></circle><circle r="5" cx="1116.1" cy="198.92" fill="#132e65"></circle><circle r="5" cx="1090.65" cy="370.6" fill="#132e65"></circle><circle r="5" cx="1152.41" cy="518.71" fill="#132e65"></circle><circle r="5" cx="1152.83" cy="656.74" fill="#132e65"></circle><circle r="5" cx="1285.88" cy="-46.59" fill="#132e65"></circle><circle r="5" cx="1283.28" cy="51.93" fill="#132e65"></circle><circle r="5" cx="1280.36" cy="348.38" fill="#132e65"></circle><circle r="5" cx="1305.01" cy="552.39" fill="#132e65"></circle><circle r="5" cx="1307.49" cy="684.65" fill="#132e65"></circle><circle r="5" cx="1390.98" cy="-69.83" fill="#132e65"></circle><circle r="5" cx="1391.09" cy="40.67" fill="#132e65"></circle><circle r="5" cx="1391.97" cy="368.43" fill="#132e65"></circle><circle r="5" cx="1435.46" cy="527.71" fill="#132e65"></circle><circle r="5" cx="1420.45" cy="693.72" fill="#132e65"></circle><circle r="5" cx="1561.24" cy="-94.22" fill="#132e65"></circle><circle r="5" cx="1608.77" cy="76.5" fill="#132e65"></circle><circle r="5" cx="1586.25" cy="187.87" fill="#132e65"></circle><circle r="5" cx="1564.11" cy="393.86" fill="#132e65"></circle><circle r="5" cx="1576.12" cy="560.68" fill="#132e65"></circle><circle r="5" cx="1578.95" cy="683.47" fill="#132e65"></circle><path d="M105.87 498.61L105.87 498.61" stroke="hsl(228.5, 77.2%, 51.5%)" stroke-width="1.5"></path><path d="M105.87 498.61L262.27 535.71" stroke="hsl(228.5, 77.2%, 51.5%)" stroke-width="1.5"></path><path d="M105.6 680.53L105.6 680.53" stroke="hsl(228.5, 77.2%, 51.5%)" stroke-width="1.5"></path><path d="M105.6 680.53L247.11 697.02" stroke="hsl(228.5, 77.2%, 51.5%)" stroke-width="1.5"></path><path d="M105.6 680.53L105.87 498.61" stroke="hsl(228.5, 77.2%, 51.5%)" stroke-width="1.5"></path><path d="M105.6 680.53L-101.03 708.05" stroke="hsl(228.5, 77.2%, 51.5%)" stroke-width="1.5"></path><path d="M105.6 680.53L262.27 535.71" stroke="hsl(228.5, 77.2%, 51.5%)" stroke-width="1.5"></path><path d="M105.6 680.53L-93.34 536.89" stroke="hsl(228.5, 77.2%, 51.5%)" stroke-width="1.5"></path><path d="M105.6 680.53L360.91 554.75" stroke="hsl(228.5, 77.2%, 51.5%)" stroke-width="1.5"></path><path d="M360.91 554.75L360.91 554.75" stroke="hsl(228.5, 77.2%, 51.5%)" stroke-width="1.5"></path><path d="M360.91 554.75L262.27 535.71" stroke="hsl(228.5, 77.2%, 51.5%)" stroke-width="1.5"></path><path d="M360.91 554.75L521.68 556.61" stroke="hsl(228.5, 77.2%, 51.5%)" stroke-width="1.5"></path><path d="M360.91 554.75L513.61 648.25" stroke="hsl(228.5, 77.2%, 51.5%)" stroke-width="1.5"></path><path d="M360.91 554.75L247.11 697.02" stroke="hsl(228.5, 77.2%, 51.5%)" stroke-width="1.5"></path><path d="M642.31 385.19L642.31 385.19" stroke="hsl(228.5, 77.2%, 51.5%)" stroke-width="1.5"></path><path d="M642.31 385.19L687.22 512.12" stroke="hsl(228.5, 77.2%, 51.5%)" stroke-width="1.5"></path><path d="M642.31 385.19L822.06 370.81" stroke="hsl(228.5, 77.2%, 51.5%)" stroke-width="1.5"></path><path d="M830.68 517.05L830.68 517.05" stroke="hsl(228.5, 77.2%, 51.5%)" stroke-width="1.5"></path><path d="M830.68 517.05L964.26 519.98" stroke="hsl(228.5, 77.2%, 51.5%)" stroke-width="1.5"></path><path d="M830.68 517.05L687.22 512.12" stroke="hsl(228.5, 77.2%, 51.5%)" stroke-width="1.5"></path><path d="M830.68 517.05L822.06 370.81" stroke="hsl(228.5, 77.2%, 51.5%)" stroke-width="1.5"></path><path d="M830.68 517.05L848.74 698.34" stroke="hsl(228.5, 77.2%, 51.5%)" stroke-width="1.5"></path><path d="M830.68 517.05L708.11 672.31" stroke="hsl(228.5, 77.2%, 51.5%)" stroke-width="1.5"></path><path d="M1003.06 370.62L1003.06 370.62" stroke="hsl(228.5, 77.2%, 51.5%)" stroke-width="1.5"></path><path d="M1003.06 370.62L1152 395.15" stroke="hsl(228.5, 77.2%, 51.5%)" stroke-width="1.5"></path><path d="M1003.06 370.62L964.26 519.98" stroke="hsl(228.5, 77.2%, 51.5%)" stroke-width="1.5"></path><path d="M964.26 519.98L964.26 519.98" stroke="hsl(228.5, 77.2%, 51.5%)" stroke-width="1.5"></path><path d="M964.26 519.98L988.89 689.9" stroke="hsl(228.5, 77.2%, 51.5%)" stroke-width="1.5"></path><path d="M964.26 519.98L1143.52 522.44" stroke="hsl(228.5, 77.2%, 51.5%)" stroke-width="1.5"></path><path d="M964.26 519.98L822.06 370.81" stroke="hsl(228.5, 77.2%, 51.5%)" stroke-width="1.5"></path><path d="M964.26 519.98L848.74 698.34" stroke="hsl(228.5, 77.2%, 51.5%)" stroke-width="1.5"></path><path d="M988.89 689.9L988.89 689.9" stroke="hsl(228.5, 77.2%, 51.5%)" stroke-width="1.5"></path><path d="M988.89 689.9L848.74 698.34" stroke="hsl(228.5, 77.2%, 51.5%)" stroke-width="1.5"></path><path d="M988.89 689.9L1143.96 646.18" stroke="hsl(228.5, 77.2%, 51.5%)" stroke-width="1.5"></path><path d="M988.89 689.9L1143.52 522.44" stroke="hsl(228.5, 77.2%, 51.5%)" stroke-width="1.5"></path><path d="M988.89 689.9L830.68 517.05" stroke="hsl(228.5, 77.2%, 51.5%)" stroke-width="1.5"></path><path d="M988.89 689.9L1262.02 701.71" stroke="hsl(228.5, 77.2%, 51.5%)" stroke-width="1.5"></path><path d="M-93.34 536.89L-93.34 536.89" stroke="hsl(228.5, 77.2%, 51.5%)" stroke-width="1.5"></path><path d="M-93.34 536.89L-101.03 708.05" stroke="hsl(228.5, 77.2%, 51.5%)" stroke-width="1.5"></path><path d="M-93.34 536.89L105.87 498.61" stroke="hsl(228.5, 77.2%, 51.5%)" stroke-width="1.5"></path><path d="M-101.03 708.05L-101.03 708.05" stroke="hsl(228.5, 77.2%, 51.5%)" stroke-width="1.5"></path><path d="M-101.03 708.05L105.87 498.61" stroke="hsl(228.5, 77.2%, 51.5%)" stroke-width="1.5"></path><path d="M262.27 535.71L262.27 535.71" stroke="hsl(228.5, 77.2%, 51.5%)" stroke-width="1.5"></path><path d="M262.27 535.71L247.11 697.02" stroke="hsl(228.5, 77.2%, 51.5%)" stroke-width="1.5"></path><path d="M262.27 535.71L521.68 556.61" stroke="hsl(228.5, 77.2%, 51.5%)" stroke-width="1.5"></path><path d="M262.27 535.71L513.61 648.25" stroke="hsl(228.5, 77.2%, 51.5%)" stroke-width="1.5"></path><path d="M247.11 697.02L247.11 697.02" stroke="hsl(228.5, 77.2%, 51.5%)" stroke-width="1.5"></path><path d="M521.68 556.61L521.68 556.61" stroke="hsl(228.5, 77.2%, 51.5%)" stroke-width="1.5"></path><path d="M521.68 556.61L513.61 648.25" stroke="hsl(228.5, 77.2%, 51.5%)" stroke-width="1.5"></path><path d="M521.68 556.61L687.22 512.12" stroke="hsl(228.5, 77.2%, 51.5%)" stroke-width="1.5"></path><path d="M521.68 556.61L642.31 385.19" stroke="hsl(228.5, 77.2%, 51.5%)" stroke-width="1.5"></path><path d="M521.68 556.61L708.11 672.31" stroke="hsl(228.5, 77.2%, 51.5%)" stroke-width="1.5"></path><path d="M513.61 648.25L513.61 648.25" stroke="hsl(228.5, 77.2%, 51.5%)" stroke-width="1.5"></path><path d="M513.61 648.25L708.11 672.31" stroke="hsl(228.5, 77.2%, 51.5%)" stroke-width="1.5"></path><path d="M513.61 648.25L687.22 512.12" stroke="hsl(228.5, 77.2%, 51.5%)" stroke-width="1.5"></path><path d="M687.22 512.12L687.22 512.12" stroke="hsl(228.5, 77.2%, 51.5%)" stroke-width="1.5"></path><path d="M708.11 672.31L708.11 672.31" stroke="hsl(228.5, 77.2%, 51.5%)" stroke-width="1.5"></path><path d="M708.11 672.31L848.74 698.34" stroke="hsl(228.5, 77.2%, 51.5%)" stroke-width="1.5"></path><path d="M822.06 370.81L822.06 370.81" stroke="hsl(228.5, 77.2%, 51.5%)" stroke-width="1.5"></path><path d="M848.74 698.34L848.74 698.34" stroke="hsl(228.5, 77.2%, 51.5%)" stroke-width="1.5"></path><path d="M848.74 698.34L687.22 512.12" stroke="hsl(228.5, 77.2%, 51.5%)" stroke-width="1.5"></path><path d="M848.74 698.34L1143.96 646.18" stroke="hsl(228.5, 77.2%, 51.5%)" stroke-width="1.5"></path><path d="M1113.45 223.71L1113.45 223.71" stroke="hsl(228.5, 77.2%, 51.5%)" stroke-width="1.5"></path><path d="M1113.45 223.71L1152 395.15" stroke="hsl(228.5, 77.2%, 51.5%)" stroke-width="1.5"></path><path d="M1113.45 223.71L1295.31 214.1" stroke="hsl(228.5, 77.2%, 51.5%)" stroke-width="1.5"></path><path d="M1113.45 223.71L1003.06 370.62" stroke="hsl(228.5, 77.2%, 51.5%)" stroke-width="1.5"></path><path d="M1152 395.15L1152 395.15" stroke="hsl(228.5, 77.2%, 51.5%)" stroke-width="1.5"></path><path d="M1152 395.15L1270.92 379.66" stroke="hsl(228.5, 77.2%, 51.5%)" stroke-width="1.5"></path><path d="M1152 395.15L1143.52 522.44" stroke="hsl(228.5, 77.2%, 51.5%)" stroke-width="1.5"></path><path d="M1143.52 522.44L1143.52 522.44" stroke="hsl(228.5, 77.2%, 51.5%)" stroke-width="1.5"></path><path d="M1143.52 522.44L1143.96 646.18" stroke="hsl(228.5, 77.2%, 51.5%)" stroke-width="1.5"></path><path d="M1143.52 522.44L1294.19 494.38" stroke="hsl(228.5, 77.2%, 51.5%)" stroke-width="1.5"></path><path d="M1143.52 522.44L1270.92 379.66" stroke="hsl(228.5, 77.2%, 51.5%)" stroke-width="1.5"></path><path d="M1143.52 522.44L1003.06 370.62" stroke="hsl(228.5, 77.2%, 51.5%)" stroke-width="1.5"></path><path d="M1143.96 646.18L1143.96 646.18" stroke="hsl(228.5, 77.2%, 51.5%)" stroke-width="1.5"></path><path d="M1143.96 646.18L1262.02 701.71" stroke="hsl(228.5, 77.2%, 51.5%)" stroke-width="1.5"></path><path d="M1290.82 90.88L1290.82 90.88" stroke="hsl(228.5, 77.2%, 51.5%)" stroke-width="1.5"></path><path d="M1290.82 90.88L1295.31 214.1" stroke="hsl(228.5, 77.2%, 51.5%)" stroke-width="1.5"></path><path d="M1290.82 90.88L1424.97 40.92" stroke="hsl(228.5, 77.2%, 51.5%)" stroke-width="1.5"></path><path d="M1295.31 214.1L1295.31 214.1" stroke="hsl(228.5, 77.2%, 51.5%)" stroke-width="1.5"></path><path d="M1295.31 214.1L1388.27 239.03" stroke="hsl(228.5, 77.2%, 51.5%)" stroke-width="1.5"></path><path d="M1295.31 214.1L1270.92 379.66" stroke="hsl(228.5, 77.2%, 51.5%)" stroke-width="1.5"></path><path d="M1270.92 379.66L1270.92 379.66" stroke="hsl(228.5, 77.2%, 51.5%)" stroke-width="1.5"></path><path d="M1270.92 379.66L1294.19 494.38" stroke="hsl(228.5, 77.2%, 51.5%)" stroke-width="1.5"></path><path d="M1270.92 379.66L1392.33 361.82" stroke="hsl(228.5, 77.2%, 51.5%)" stroke-width="1.5"></path><path d="M1294.19 494.38L1294.19 494.38" stroke="hsl(228.5, 77.2%, 51.5%)" stroke-width="1.5"></path><path d="M1294.19 494.38L1402.67 543.07" stroke="hsl(228.5, 77.2%, 51.5%)" stroke-width="1.5"></path><path d="M1262.02 701.71L1262.02 701.71" stroke="hsl(228.5, 77.2%, 51.5%)" stroke-width="1.5"></path><path d="M1424.97 40.92L1424.97 40.92" stroke="hsl(228.5, 77.2%, 51.5%)" stroke-width="1.5"></path><path d="M1424.97 40.92L1567.73 58.47" stroke="hsl(228.5, 77.2%, 51.5%)" stroke-width="1.5"></path><path d="M1424.97 40.92L1563.38 -72.17" stroke="hsl(228.5, 77.2%, 51.5%)" stroke-width="1.5"></path><path d="M1388.27 239.03L1388.27 239.03" stroke="hsl(228.5, 77.2%, 51.5%)" stroke-width="1.5"></path><path d="M1388.27 239.03L1392.33 361.82" stroke="hsl(228.5, 77.2%, 51.5%)" stroke-width="1.5"></path><path d="M1388.27 239.03L1544.28 203.14" stroke="hsl(228.5, 77.2%, 51.5%)" stroke-width="1.5"></path><path d="M1388.27 239.03L1290.82 90.88" stroke="hsl(228.5, 77.2%, 51.5%)" stroke-width="1.5"></path><path d="M1388.27 239.03L1270.92 379.66" stroke="hsl(228.5, 77.2%, 51.5%)" stroke-width="1.5"></path><path d="M1392.33 361.82L1392.33 361.82" stroke="hsl(228.5, 77.2%, 51.5%)" stroke-width="1.5"></path><path d="M1392.33 361.82L1538.38 401.57" stroke="hsl(228.5, 77.2%, 51.5%)" stroke-width="1.5"></path><path d="M1392.33 361.82L1294.19 494.38" stroke="hsl(228.5, 77.2%, 51.5%)" stroke-width="1.5"></path><path d="M1392.33 361.82L1295.31 214.1" stroke="hsl(228.5, 77.2%, 51.5%)" stroke-width="1.5"></path><path d="M1402.67 543.07L1402.67 543.07" stroke="hsl(228.5, 77.2%, 51.5%)" stroke-width="1.5"></path><path d="M1402.67 543.07L1402.45 656.09" stroke="hsl(228.5, 77.2%, 51.5%)" stroke-width="1.5"></path><path d="M1402.67 543.07L1554.24 553.88" stroke="hsl(228.5, 77.2%, 51.5%)" stroke-width="1.5"></path><path d="M1402.67 543.07L1541.53 647.05" stroke="hsl(228.5, 77.2%, 51.5%)" stroke-width="1.5"></path><path d="M1402.67 543.07L1392.33 361.82" stroke="hsl(228.5, 77.2%, 51.5%)" stroke-width="1.5"></path><path d="M1402.45 656.09L1402.45 656.09" stroke="hsl(228.5, 77.2%, 51.5%)" stroke-width="1.5"></path><path d="M1402.45 656.09L1541.53 647.05" stroke="hsl(228.5, 77.2%, 51.5%)" stroke-width="1.5"></path><path d="M1402.45 656.09L1262.02 701.71" stroke="hsl(228.5, 77.2%, 51.5%)" stroke-width="1.5"></path><path d="M1402.45 656.09L1554.24 553.88" stroke="hsl(228.5, 77.2%, 51.5%)" stroke-width="1.5"></path><path d="M1402.45 656.09L1294.19 494.38" stroke="hsl(228.5, 77.2%, 51.5%)" stroke-width="1.5"></path><path d="M1563.38 -72.17L1563.38 -72.17" stroke="hsl(228.5, 77.2%, 51.5%)" stroke-width="1.5"></path><path d="M1563.38 -72.17L1567.73 58.47" stroke="hsl(228.5, 77.2%, 51.5%)" stroke-width="1.5"></path><path d="M1563.38 -72.17L1544.28 203.14" stroke="hsl(228.5, 77.2%, 51.5%)" stroke-width="1.5"></path><path d="M1563.38 -72.17L1290.82 90.88" stroke="hsl(228.5, 77.2%, 51.5%)" stroke-width="1.5"></path><path d="M1563.38 -72.17L1388.27 239.03" stroke="hsl(228.5, 77.2%, 51.5%)" stroke-width="1.5"></path><path d="M1563.38 -72.17L1295.31 214.1" stroke="hsl(228.5, 77.2%, 51.5%)" stroke-width="1.5"></path><path d="M1567.73 58.47L1567.73 58.47" stroke="hsl(228.5, 77.2%, 51.5%)" stroke-width="1.5"></path><path d="M1567.73 58.47L1544.28 203.14" stroke="hsl(228.5, 77.2%, 51.5%)" stroke-width="1.5"></path><path d="M1567.73 58.47L1388.27 239.03" stroke="hsl(228.5, 77.2%, 51.5%)" stroke-width="1.5"></path><path d="M1567.73 58.47L1290.82 90.88" stroke="hsl(228.5, 77.2%, 51.5%)" stroke-width="1.5"></path><path d="M1544.28 203.14L1544.28 203.14" stroke="hsl(228.5, 77.2%, 51.5%)" stroke-width="1.5"></path><path d="M1544.28 203.14L1538.38 401.57" stroke="hsl(228.5, 77.2%, 51.5%)" stroke-width="1.5"></path><path d="M1544.28 203.14L1424.97 40.92" stroke="hsl(228.5, 77.2%, 51.5%)" stroke-width="1.5"></path><path d="M1538.38 401.57L1538.38 401.57" stroke="hsl(228.5, 77.2%, 51.5%)" stroke-width="1.5"></path><path d="M1538.38 401.57L1554.24 553.88" stroke="hsl(228.5, 77.2%, 51.5%)" stroke-width="1.5"></path><path d="M1554.24 553.88L1554.24 553.88" stroke="hsl(228.5, 77.2%, 51.5%)" stroke-width="1.5"></path><path d="M1554.24 553.88L1541.53 647.05" stroke="hsl(228.5, 77.2%, 51.5%)" stroke-width="1.5"></path><path d="M1541.53 647.05L1541.53 647.05" stroke="hsl(228.5, 77.2%, 51.5%)" stroke-width="1.5"></path><circle r="25" cx="105.87" cy="498.61" fill="url(#SvgjsRadialGradient1039)"></circle><circle r="25" cx="105.6" cy="680.53" fill="url(#SvgjsRadialGradient1039)"></circle><circle r="25" cx="360.91" cy="554.75" fill="url(#SvgjsRadialGradient1039)"></circle><circle r="25" cx="642.31" cy="385.19" fill="url(#SvgjsRadialGradient1039)"></circle><circle r="25" cx="830.68" cy="517.05" fill="url(#SvgjsRadialGradient1039)"></circle><circle r="25" cx="1003.06" cy="370.62" fill="url(#SvgjsRadialGradient1039)"></circle><circle r="25" cx="964.26" cy="519.98" fill="url(#SvgjsRadialGradient1039)"></circle><circle r="25" cx="988.89" cy="689.9" fill="url(#SvgjsRadialGradient1039)"></circle><circle r="5" cx="-93.34" cy="536.89" fill="#8b9ad9"></circle><circle r="5" cx="-101.03" cy="708.05" fill="#8b9ad9"></circle><circle r="5" cx="262.27" cy="535.71" fill="#8b9ad9"></circle><circle r="5" cx="247.11" cy="697.02" fill="#8b9ad9"></circle><circle r="5" cx="521.68" cy="556.61" fill="#8b9ad9"></circle><circle r="5" cx="513.61" cy="648.25" fill="#8b9ad9"></circle><circle r="5" cx="687.22" cy="512.12" fill="#8b9ad9"></circle><circle r="5" cx="708.11" cy="672.31" fill="#8b9ad9"></circle><circle r="5" cx="822.06" cy="370.81" fill="#8b9ad9"></circle><circle r="5" cx="848.74" cy="698.34" fill="#8b9ad9"></circle><circle r="5" cx="1113.45" cy="223.71" fill="#8b9ad9"></circle><circle r="5" cx="1152" cy="395.15" fill="#8b9ad9"></circle><circle r="5" cx="1143.52" cy="522.44" fill="#8b9ad9"></circle><circle r="5" cx="1143.96" cy="646.18" fill="#8b9ad9"></circle><circle r="5" cx="1290.82" cy="90.88" fill="#8b9ad9"></circle><circle r="5" cx="1295.31" cy="214.1" fill="#8b9ad9"></circle><circle r="5" cx="1270.92" cy="379.66" fill="#8b9ad9"></circle><circle r="5" cx="1294.19" cy="494.38" fill="#8b9ad9"></circle><circle r="5" cx="1262.02" cy="701.71" fill="#8b9ad9"></circle><circle r="5" cx="1424.97" cy="40.92" fill="#8b9ad9"></circle><circle r="5" cx="1388.27" cy="239.03" fill="#8b9ad9"></circle><circle r="5" cx="1392.33" cy="361.82" fill="#8b9ad9"></circle><circle r="5" cx="1402.67" cy="543.07" fill="#8b9ad9"></circle><circle r="5" cx="1402.45" cy="656.09" fill="#8b9ad9"></circle><circle r="5" cx="1563.38" cy="-72.17" fill="#8b9ad9"></circle><circle r="5" cx="1567.73" cy="58.47" fill="#8b9ad9"></circle><circle r="5" cx="1544.28" cy="203.14" fill="#8b9ad9"></circle><circle r="5" cx="1538.38" cy="401.57" fill="#8b9ad9"></circle><circle r="5" cx="1554.24" cy="553.88" fill="#8b9ad9"></circle><circle r="5" cx="1541.53" cy="647.05" fill="#8b9ad9"></circle></g><defs><mask id="SvgjsMask1038"><rect width="1440" height="560" fill="#ffffff"></rect></mask><radialGradient id="SvgjsRadialGradient1039"><stop stop-color="#ffffff" offset="0.1"></stop><stop stop-color="#1735b3" offset="0.2"></stop><stop stop-color="rgba(23, 53, 179, 0)" offset="1"></stop></radialGradient></defs></svg>